IDResults
version=1
nRows=7
nColumns=40
inDegrees=yes

Units are S.I. units (second, meters, Newtons, ...)
If the header above contains a line with 'inDegrees', this indicates whether rotational values are in degrees (yes) or radians (no).

endheader
time	pelvis_tilt	pelvis_list	pelvis_rotation	pelvis_tx	pelvis_ty	pelvis_tz	hip_flexion_r	hip_adduction_r	hip_rotation_r	knee_angle_r	knee_angle_r_beta	ankle_angle_r	subtalar_angle_r	mtp_angle_r	hip_flexion_l	hip_adduction_l	hip_rotation_l	knee_angle_l	knee_angle_l_beta	ankle_angle_l	subtalar_angle_l	mtp_angle_l	lumbar_extension	lumbar_bending	lumbar_rotation	arm_flex_r	arm_add_r	arm_rot_r	elbow_flex_r	pro_sup_r	wrist_flex_r	wrist_dev_r	arm_flex_l	arm_add_l	arm_rot_l	elbow_flex_l	pro_sup_l	wrist_flex_l	wrist_dev_l
      1.03000000	     -6.95451696	     -0.84034803	     11.55420313	     -1.56305764	      0.97564199	      0.21535167	     38.08889135	     -7.20028841	    -14.61169793	     26.32834391	      0.45951629	     -9.46226599	     -0.34496364	      0.00000000	     -4.69265401	     -3.84614741	      2.62541125	     37.74601059	      0.65879216	     -4.30058953	     12.04253118	      0.00000000	     -6.72950215	      4.95614887	    -10.87179796	    -13.97226439	    -10.78987315	      7.69419939	     35.97479398	     78.00630437	      0.00000000	      0.00000000	     -5.42571169	    -11.75177480	     -2.25381287	     49.78337113	     73.51558268	      0.00000000	      0.00000000
      1.04000000	     -6.79005304	     -1.25831776	     11.17664564	     -1.54752727	      0.97835563	      0.21737348	     37.19388396	     -6.29775378	    -14.52538244	     26.65021394	      0.46513398	     -8.79101374	     -0.41894168	      0.00000000	     -3.33344751	     -4.86514521	      1.13194650	     40.38775553	      0.70489931	     -8.80350855	     11.18598609	      0.00000000	     -6.71139532	      5.58463122	    -10.50029633	    -13.73022283	    -10.94886662	      7.65049284	     35.94370155	     78.21177391	      0.00000000	      0.00000000	     -6.15135882	    -11.18637485	     -2.63673700	     48.73902824	     73.52477864	      0.00000000	      0.00000000
      1.05000000	     -6.68725978	     -1.73411044	     10.91309559	     -1.53219777	      0.98093442	      0.21951812	     36.23370819	     -5.26892345	    -14.36342227	     26.74646160	      0.46681382	     -7.93054800	     -0.72229234	      0.00000000	     -1.77340153	     -5.92919127	     -0.05909792	     42.95735324	      0.74974725	    -13.53699688	      9.82558677	      0.00000000	     -6.64503788	      6.22305710	    -10.36684343	    -13.44047040	    -11.09677155	      7.64301477	     36.07639394	     78.45085420	      0.00000000	      0.00000000	     -7.03993074	    -10.70273831	     -2.86189453	     47.78518209	     73.45420460	      0.00000000	      0.00000000
      1.06000000	     -6.71343864	     -2.32757389	     10.97330218	     -1.51769867	      0.98316488	      0.22125113	     35.34593187	     -4.23412195	    -14.28809353	     26.60363602	      0.46432104	     -7.51487041	     -1.63162898	      0.00000000	      0.19471664	     -6.96536073	     -0.62583508	     45.60298684	      0.79592227	    -18.61683292	      7.44144515	      0.00000000	     -6.43467882	      6.97704703	    -10.48040647	    -13.16116813	    -11.24704616	      7.58782194	     36.32509120	     79.02351429	      0.00000000	      0.00000000	     -7.81121139	    -10.28131383	     -2.93517856	     46.85483909	     73.35469423	      0.00000000	      0.00000000
      1.07000000	     -6.74794799	     -2.80942947	     11.03853516	     -1.50354397	      0.98545115	      0.22301678	     34.39877056	     -3.28403037	    -14.13920776	     26.34949910	      0.45988552	     -6.90410044	     -2.51236084	      0.00000000	      2.15098755	     -7.82286831	     -1.05714883	     47.86261183	      0.83536017	    -23.89529564	      5.07880390	      0.00000000	     -6.28078248	      7.57846976	    -10.62399071	    -12.83899415	    -11.36357110	      7.49247880	     36.63144622	     79.62685851	      0.00000000	      0.00000000	     -8.53081431	    -10.00532544	     -2.68646798	     45.93011761	     73.17673568	      0.00000000	      0.00000000
      1.08000000	     -6.62892993	     -3.29021476	     11.05072131	     -1.48941026	      0.98797536	      0.22505774	     33.27495441	     -2.26106669	    -13.96706221	     26.04118210	      0.45450437	     -6.25364935	     -3.15305322	      0.00000000	      3.89272591	     -8.74616128	     -1.61117100	     49.96482851	      0.87205077	    -28.67817068	      2.43832491	      0.00000000	     -6.31500845	      8.16890608	    -10.65301203	    -12.50463001	    -11.47937441	      7.54628770	     37.00476914	     79.91114609	      0.00000000	      0.00000000	     -9.16896428	     -9.84716983	     -2.28482418	     45.03536905	     73.18242805	      0.00000000	      0.00000000
      1.09000000	     -6.47668241	     -3.50416227	     10.96715710	     -1.47560653	      0.99074205	      0.22697571	     32.11329338	     -1.46107041	    -13.60325901	     25.73862677	      0.44922378	     -5.63017098	     -3.83005115	      0.00000000	      5.51865560	     -9.22915970	     -1.98352368	     52.00143202	      0.90759620	    -31.14824278	      0.16942756	      0.00000000	     -6.49749618	      8.45612579	    -10.58011963	    -12.10187904	    -11.57912941	      7.68850027	     37.29773771	     80.24716372	      0.00000000	      0.00000000	     -9.72965590	     -9.75463144	     -1.59354947	     44.13345668	     73.04380704	      0.00000000	      0.00000000
